<svg xmlns="http://www.w3.org/2000/svg" version="1.1" xmlns:xlink="http://www.w3.org/1999/xlink" xmlns:svgjs="http://svgjs.dev/svgjs" width="1440" height="560" preserveAspectRatio="none" viewBox="0 0 1440 560"><g mask="url(&quot;#SvgjsMask1000&quot;)" fill="none"><rect width="1440" height="560" x="0" y="0" fill="#0e2a47"></rect><path d="M9.25 -46.31L74.2 -8.81L74.2 66.19L9.25 103.69L-55.7 66.19L-55.7 -8.81zM74.2 66.19L139.16 103.69L139.16 178.69L74.2 216.19L9.25 178.69L9.25 103.69zM9.25 178.69L74.2 216.19L74.2 291.19L9.25 328.69L-55.7 291.19L-55.7 216.19zM9.25 403.69L74.2 441.19L74.2 516.19L9.25 553.69L-55.7 516.19L-55.7 441.19zM204.11 66.19L269.06 103.69L269.06 178.69L204.11 216.19L139.16 178.69L139.16 103.69zM139.16 178.69L204.11 216.19L204.11 291.19L139.16 328.69L74.2 291.19L74.2 216.19zM204.11 291.19L269.06 328.69L269.06 403.69L204.11 441.19L139.16 403.69L139.16 328.69zM139.16 403.69L204.11 441.19L204.11 516.19L139.16 553.69L74.2 516.19L74.2 441.19zM204.11 516.19L269.06 553.69L269.06 628.69L204.11 666.19L139.16 628.69L139.16 553.69zM334.02 66.19L398.97 103.69L398.97 178.69L334.02 216.19L269.06 178.69L269.06 103.69zM269.06 178.69L334.02 216.19L334.02 291.19L269.06 328.69L204.11 291.19L204.11 216.19zM463.93 66.19L528.88 103.69L528.88 178.69L463.93 216.19L398.97 178.69L398.97 103.69zM528.88 -46.31L593.83 -8.81L593.83 66.19L528.88 103.69L463.93 66.19L463.93 -8.81zM723.74 66.19L788.7 103.69L788.7 178.69L723.74 216.19L658.79 178.69L658.79 103.69zM658.79 178.69L723.74 216.19L723.74 291.19L658.79 328.69L593.83 291.19L593.83 216.19zM983.56 66.19L1048.51 103.69L1048.51 178.69L983.56 216.19L918.6 178.69L918.6 103.69zM918.6 178.69L983.56 216.19L983.56 291.19L918.6 328.69L853.65 291.19L853.65 216.19zM983.56 291.19L1048.51 328.69L1048.51 403.69L983.56 441.19L918.6 403.69L918.6 328.69zM1048.51 -46.31L1113.46 -8.81L1113.46 66.19L1048.51 103.69L983.56 66.19L983.56 -8.81zM1113.46 66.19L1178.42 103.69L1178.42 178.69L1113.46 216.19L1048.51 178.69L1048.51 103.69zM1048.51 178.69L1113.46 216.19L1113.46 291.19L1048.51 328.69L983.56 291.19L983.56 216.19zM1113.46 291.19L1178.42 328.69L1178.42 403.69L1113.46 441.19L1048.51 403.69L1048.51 328.69zM1048.51 403.69L1113.46 441.19L1113.46 516.19L1048.51 553.69L983.56 516.19L983.56 441.19zM1113.46 516.19L1178.42 553.69L1178.42 628.69L1113.46 666.19L1048.51 628.69L1048.51 553.69zM1178.42 178.69L1243.37 216.19L1243.37 291.19L1178.42 328.69L1113.46 291.19L1113.46 216.19zM1243.37 291.19L1308.32 328.69L1308.32 403.69L1243.37 441.19L1178.42 403.69L1178.42 328.69zM1243.37 516.19L1308.32 553.69L1308.32 628.69L1243.37 666.19L1178.42 628.69L1178.42 553.69zM1308.33 -46.31L1373.28 -8.81L1373.28 66.19L1308.33 103.69L1243.37 66.19L1243.37 -8.81zM1503.19 516.19L1568.14 553.69L1568.14 628.69L1503.19 666.19L1438.23 628.69L1438.23 553.69z" stroke="#03305d" stroke-width="2"></path><path d="M1.75 -46.31 a7.5 7.5 0 1 0 15 0 a7.5 7.5 0 1 0 -15 0zM66.7 -8.81 a7.5 7.5 0 1 0 15 0 a7.5 7.5 0 1 0 -15 0zM66.7 66.19 a7.5 7.5 0 1 0 15 0 a7.5 7.5 0 1 0 -15 0zM1.75 103.69 a7.5 7.5 0 1 0 15 0 a7.5 7.5 0 1 0 -15 0zM-63.2 66.19 a7.5 7.5 0 1 0 15 0 a7.5 7.5 0 1 0 -15 0zM-63.2 -8.81 a7.5 7.5 0 1 0 15 0 a7.5 7.5 0 1 0 -15 0zM131.66 103.69 a7.5 7.5 0 1 0 15 0 a7.5 7.5 0 1 0 -15 0zM131.66 178.69 a7.5 7.5 0 1 0 15 0 a7.5 7.5 0 1 0 -15 0zM66.7 216.19 a7.5 7.5 0 1 0 15 0 a7.5 7.5 0 1 0 -15 0zM1.75 178.69 a7.5 7.5 0 1 0 15 0 a7.5 7.5 0 1 0 -15 0zM66.7 291.19 a7.5 7.5 0 1 0 15 0 a7.5 7.5 0 1 0 -15 0zM1.75 328.69 a7.5 7.5 0 1 0 15 0 a7.5 7.5 0 1 0 -15 0zM-63.2 291.19 a7.5 7.5 0 1 0 15 0 a7.5 7.5 0 1 0 -15 0zM-63.2 216.19 a7.5 7.5 0 1 0 15 0 a7.5 7.5 0 1 0 -15 0zM1.75 403.69 a7.5 7.5 0 1 0 15 0 a7.5 7.5 0 1 0 -15 0zM66.7 441.19 a7.5 7.5 0 1 0 15 0 a7.5 7.5 0 1 0 -15 0zM66.7 516.19 a7.5 7.5 0 1 0 15 0 a7.5 7.5 0 1 0 -15 0zM1.75 553.69 a7.5 7.5 0 1 0 15 0 a7.5 7.5 0 1 0 -15 0zM-63.2 516.19 a7.5 7.5 0 1 0 15 0 a7.5 7.5 0 1 0 -15 0zM-63.2 441.19 a7.5 7.5 0 1 0 15 0 a7.5 7.5 0 1 0 -15 0zM196.61 66.19 a7.5 7.5 0 1 0 15 0 a7.5 7.5 0 1 0 -15 0zM261.56 103.69 a7.5 7.5 0 1 0 15 0 a7.5 7.5 0 1 0 -15 0zM261.56 178.69 a7.5 7.5 0 1 0 15 0 a7.5 7.5 0 1 0 -15 0zM196.61 216.19 a7.5 7.5 0 1 0 15 0 a7.5 7.5 0 1 0 -15 0zM196.61 291.19 a7.5 7.5 0 1 0 15 0 a7.5 7.5 0 1 0 -15 0zM131.66 328.69 a7.5 7.5 0 1 0 15 0 a7.5 7.5 0 1 0 -15 0zM261.56 328.69 a7.5 7.5 0 1 0 15 0 a7.5 7.5 0 1 0 -15 0zM261.56 403.69 a7.5 7.5 0 1 0 15 0 a7.5 7.5 0 1 0 -15 0zM196.61 441.19 a7.5 7.5 0 1 0 15 0 a7.5 7.5 0 1 0 -15 0zM131.66 403.69 a7.5 7.5 0 1 0 15 0 a7.5 7.5 0 1 0 -15 0zM196.61 516.19 a7.5 7.5 0 1 0 15 0 a7.5 7.5 0 1 0 -15 0zM131.66 553.69 a7.5 7.5 0 1 0 15 0 a7.5 7.5 0 1 0 -15 0zM261.56 553.69 a7.5 7.5 0 1 0 15 0 a7.5 7.5 0 1 0 -15 0zM261.56 628.69 a7.5 7.5 0 1 0 15 0 a7.5 7.5 0 1 0 -15 0zM196.61 666.19 a7.5 7.5 0 1 0 15 0 a7.5 7.5 0 1 0 -15 0zM131.66 628.69 a7.5 7.5 0 1 0 15 0 a7.5 7.5 0 1 0 -15 0zM326.52 66.19 a7.5 7.5 0 1 0 15 0 a7.5 7.5 0 1 0 -15 0zM391.47 103.69 a7.5 7.5 0 1 0 15 0 a7.5 7.5 0 1 0 -15 0zM391.47 178.69 a7.5 7.5 0 1 0 15 0 a7.5 7.5 0 1 0 -15 0zM326.52 216.19 a7.5 7.5 0 1 0 15 0 a7.5 7.5 0 1 0 -15 0zM326.52 291.19 a7.5 7.5 0 1 0 15 0 a7.5 7.5 0 1 0 -15 0zM456.43 66.19 a7.5 7.5 0 1 0 15 0 a7.5 7.5 0 1 0 -15 0zM521.38 103.69 a7.5 7.5 0 1 0 15 0 a7.5 7.5 0 1 0 -15 0zM521.38 178.69 a7.5 7.5 0 1 0 15 0 a7.5 7.5 0 1 0 -15 0zM456.43 216.19 a7.5 7.5 0 1 0 15 0 a7.5 7.5 0 1 0 -15 0zM521.38 -46.31 a7.5 7.5 0 1 0 15 0 a7.5 7.5 0 1 0 -15 0zM586.33 -8.81 a7.5 7.5 0 1 0 15 0 a7.5 7.5 0 1 0 -15 0zM586.33 66.19 a7.5 7.5 0 1 0 15 0 a7.5 7.5 0 1 0 -15 0zM456.43 -8.81 a7.5 7.5 0 1 0 15 0 a7.5 7.5 0 1 0 -15 0zM716.24 66.19 a7.5 7.5 0 1 0 15 0 a7.5 7.5 0 1 0 -15 0zM781.2 103.69 a7.5 7.5 0 1 0 15 0 a7.5 7.5 0 1 0 -15 0zM781.2 178.69 a7.5 7.5 0 1 0 15 0 a7.5 7.5 0 1 0 -15 0zM716.24 216.19 a7.5 7.5 0 1 0 15 0 a7.5 7.5 0 1 0 -15 0zM651.29 178.69 a7.5 7.5 0 1 0 15 0 a7.5 7.5 0 1 0 -15 0zM651.29 103.69 a7.5 7.5 0 1 0 15 0 a7.5 7.5 0 1 0 -15 0zM716.24 291.19 a7.5 7.5 0 1 0 15 0 a7.5 7.5 0 1 0 -15 0zM651.29 328.69 a7.5 7.5 0 1 0 15 0 a7.5 7.5 0 1 0 -15 0zM586.33 291.19 a7.5 7.5 0 1 0 15 0 a7.5 7.5 0 1 0 -15 0zM586.33 216.19 a7.5 7.5 0 1 0 15 0 a7.5 7.5 0 1 0 -15 0zM976.06 66.19 a7.5 7.5 0 1 0 15 0 a7.5 7.5 0 1 0 -15 0zM1041.01 103.69 a7.5 7.5 0 1 0 15 0 a7.5 7.5 0 1 0 -15 0zM1041.01 178.69 a7.5 7.5 0 1 0 15 0 a7.5 7.5 0 1 0 -15 0zM976.06 216.19 a7.5 7.5 0 1 0 15 0 a7.5 7.5 0 1 0 -15 0zM911.1 178.69 a7.5 7.5 0 1 0 15 0 a7.5 7.5 0 1 0 -15 0zM911.1 103.69 a7.5 7.5 0 1 0 15 0 a7.5 7.5 0 1 0 -15 0zM976.06 291.19 a7.5 7.5 0 1 0 15 0 a7.5 7.5 0 1 0 -15 0zM911.1 328.69 a7.5 7.5 0 1 0 15 0 a7.5 7.5 0 1 0 -15 0zM846.15 291.19 a7.5 7.5 0 1 0 15 0 a7.5 7.5 0 1 0 -15 0zM846.15 216.19 a7.5 7.5 0 1 0 15 0 a7.5 7.5 0 1 0 -15 0zM1041.01 328.69 a7.5 7.5 0 1 0 15 0 a7.5 7.5 0 1 0 -15 0zM1041.01 403.69 a7.5 7.5 0 1 0 15 0 a7.5 7.5 0 1 0 -15 0zM976.06 441.19 a7.5 7.5 0 1 0 15 0 a7.5 7.5 0 1 0 -15 0zM911.1 403.69 a7.5 7.5 0 1 0 15 0 a7.5 7.5 0 1 0 -15 0zM1041.01 -46.31 a7.5 7.5 0 1 0 15 0 a7.5 7.5 0 1 0 -15 0zM1105.96 -8.81 a7.5 7.5 0 1 0 15 0 a7.5 7.5 0 1 0 -15 0zM1105.96 66.19 a7.5 7.5 0 1 0 15 0 a7.5 7.5 0 1 0 -15 0zM976.06 -8.81 a7.5 7.5 0 1 0 15 0 a7.5 7.5 0 1 0 -15 0zM1170.92 103.69 a7.5 7.5 0 1 0 15 0 a7.5 7.5 0 1 0 -15 0zM1170.92 178.69 a7.5 7.5 0 1 0 15 0 a7.5 7.5 0 1 0 -15 0zM1105.96 216.19 a7.5 7.5 0 1 0 15 0 a7.5 7.5 0 1 0 -15 0zM1105.96 291.19 a7.5 7.5 0 1 0 15 0 a7.5 7.5 0 1 0 -15 0zM1170.92 328.69 a7.5 7.5 0 1 0 15 0 a7.5 7.5 0 1 0 -15 0zM1170.92 403.69 a7.5 7.5 0 1 0 15 0 a7.5 7.5 0 1 0 -15 0zM1105.96 441.19 a7.5 7.5 0 1 0 15 0 a7.5 7.5 0 1 0 -15 0zM1105.96 516.19 a7.5 7.5 0 1 0 15 0 a7.5 7.5 0 1 0 -15 0zM1041.01 553.69 a7.5 7.5 0 1 0 15 0 a7.5 7.5 0 1 0 -15 0zM976.06 516.19 a7.5 7.5 0 1 0 15 0 a7.5 7.5 0 1 0 -15 0zM1170.92 553.69 a7.5 7.5 0 1 0 15 0 a7.5 7.5 0 1 0 -15 0zM1170.92 628.69 a7.5 7.5 0 1 0 15 0 a7.5 7.5 0 1 0 -15 0zM1105.96 666.19 a7.5 7.5 0 1 0 15 0 a7.5 7.5 0 1 0 -15 0zM1041.01 628.69 a7.5 7.5 0 1 0 15 0 a7.5 7.5 0 1 0 -15 0zM1235.87 216.19 a7.5 7.5 0 1 0 15 0 a7.5 7.5 0 1 0 -15 0zM1235.87 291.19 a7.5 7.5 0 1 0 15 0 a7.5 7.5 0 1 0 -15 0zM1300.82 328.69 a7.5 7.5 0 1 0 15 0 a7.5 7.5 0 1 0 -15 0zM1300.82 403.69 a7.5 7.5 0 1 0 15 0 a7.5 7.5 0 1 0 -15 0zM1235.87 441.19 a7.5 7.5 0 1 0 15 0 a7.5 7.5 0 1 0 -15 0zM1235.87 516.19 a7.5 7.5 0 1 0 15 0 a7.5 7.5 0 1 0 -15 0zM1300.82 553.69 a7.5 7.5 0 1 0 15 0 a7.5 7.5 0 1 0 -15 0zM1300.82 628.69 a7.5 7.5 0 1 0 15 0 a7.5 7.5 0 1 0 -15 0zM1235.87 666.19 a7.5 7.5 0 1 0 15 0 a7.5 7.5 0 1 0 -15 0zM1300.83 -46.31 a7.5 7.5 0 1 0 15 0 a7.5 7.5 0 1 0 -15 0zM1365.78 -8.81 a7.5 7.5 0 1 0 15 0 a7.5 7.5 0 1 0 -15 0zM1365.78 66.19 a7.5 7.5 0 1 0 15 0 a7.5 7.5 0 1 0 -15 0zM1300.83 103.69 a7.5 7.5 0 1 0 15 0 a7.5 7.5 0 1 0 -15 0zM1235.87 66.19 a7.5 7.5 0 1 0 15 0 a7.5 7.5 0 1 0 -15 0zM1235.87 -8.81 a7.5 7.5 0 1 0 15 0 a7.5 7.5 0 1 0 -15 0zM1495.69 516.19 a7.5 7.5 0 1 0 15 0 a7.5 7.5 0 1 0 -15 0zM1560.64 553.69 a7.5 7.5 0 1 0 15 0 a7.5 7.5 0 1 0 -15 0zM1560.64 628.69 a7.5 7.5 0 1 0 15 0 a7.5 7.5 0 1 0 -15 0zM1495.69 666.19 a7.5 7.5 0 1 0 15 0 a7.5 7.5 0 1 0 -15 0zM1430.73 628.69 a7.5 7.5 0 1 0 15 0 a7.5 7.5 0 1 0 -15 0zM1430.73 553.69 a7.5 7.5 0 1 0 15 0 a7.5 7.5 0 1 0 -15 0z" fill="#03305d"></path><path d="M21.55 -39.78L64.85 -14.78L64.85 35.22L21.55 60.22L-21.75 35.22L-21.75 -14.78zM64.85 185.22L108.16 210.22L108.16 260.22L64.85 285.22L21.55 260.22L21.55 210.22zM64.85 485.22L108.16 510.22L108.16 560.22L64.85 585.22L21.55 560.22L21.55 510.22zM108.16 -39.78L151.46 -14.78L151.46 35.22L108.16 60.22L64.85 35.22L64.85 -14.78zM108.16 110.22L151.46 135.22L151.46 185.22L108.16 210.22L64.85 185.22L64.85 135.22zM238.06 35.22L281.37 60.22L281.37 110.22L238.06 135.22L194.76 110.22L194.76 60.22zM194.76 260.22L238.06 285.22L238.06 335.22L194.76 360.22L151.46 335.22L151.46 285.22zM238.06 335.22L281.37 360.22L281.37 410.22L238.06 435.22L194.76 410.22L194.76 360.22zM324.67 35.22L367.97 60.22L367.97 110.22L324.67 135.22L281.37 110.22L281.37 60.22zM281.37 260.22L324.67 285.22L324.67 335.22L281.37 360.22L238.06 335.22L238.06 285.22zM324.67 485.22L367.97 510.22L367.97 560.22L324.67 585.22L281.37 560.22L281.37 510.22zM367.97 -39.78L411.27 -14.78L411.27 35.22L367.97 60.22L324.67 35.22L324.67 -14.78zM411.27 35.22L454.58 60.22L454.58 110.22L411.27 135.22L367.97 110.22L367.97 60.22zM367.97 110.22L411.27 135.22L411.27 185.22L367.97 210.22L324.67 185.22L324.67 135.22zM411.27 185.22L454.58 210.22L454.58 260.22L411.27 285.22L367.97 260.22L367.97 210.22zM367.97 260.22L411.27 285.22L411.27 335.22L367.97 360.22L324.67 335.22L324.67 285.22zM411.27 485.22L454.58 510.22L454.58 560.22L411.27 585.22L367.97 560.22L367.97 510.22zM454.58 -39.78L497.88 -14.78L497.88 35.22L454.58 60.22L411.27 35.22L411.27 -14.78zM584.48 35.22L627.78 60.22L627.78 110.22L584.48 135.22L541.18 110.22L541.18 60.22zM541.18 110.22L584.48 135.22L584.48 185.22L541.18 210.22L497.88 185.22L497.88 135.22zM541.18 260.22L584.48 285.22L584.48 335.22L541.18 360.22L497.88 335.22L497.88 285.22zM671.09 185.22L714.39 210.22L714.39 260.22L671.09 285.22L627.78 260.22L627.78 210.22zM714.39 260.22L757.69 285.22L757.69 335.22L714.39 360.22L671.09 335.22L671.09 285.22zM801 260.22L844.3 285.22L844.3 335.22L801 360.22L757.69 335.22L757.69 285.22zM887.6 110.22L930.9 135.22L930.9 185.22L887.6 210.22L844.3 185.22L844.3 135.22zM930.9 185.22L974.21 210.22L974.21 260.22L930.9 285.22L887.6 260.22L887.6 210.22zM887.6 260.22L930.9 285.22L930.9 335.22L887.6 360.22L844.3 335.22L844.3 285.22zM930.9 485.22L974.21 510.22L974.21 560.22L930.9 585.22L887.6 560.22L887.6 510.22zM974.21 260.22L1017.51 285.22L1017.51 335.22L974.21 360.22L930.9 335.22L930.9 285.22zM1060.81 -39.78L1104.11 -14.78L1104.11 35.22L1060.81 60.22L1017.51 35.22L1017.51 -14.78zM1060.81 110.22L1104.11 135.22L1104.11 185.22L1060.81 210.22L1017.51 185.22L1017.51 135.22zM1104.11 335.22L1147.41 360.22L1147.41 410.22L1104.11 435.22L1060.81 410.22L1060.81 360.22zM1104.11 485.22L1147.41 510.22L1147.41 560.22L1104.11 585.22L1060.81 560.22L1060.81 510.22zM1190.72 185.22L1234.02 210.22L1234.02 260.22L1190.72 285.22L1147.41 260.22L1147.41 210.22zM1190.72 485.22L1234.02 510.22L1234.02 560.22L1190.72 585.22L1147.41 560.22L1147.41 510.22zM1277.32 35.22L1320.63 60.22L1320.63 110.22L1277.32 135.22L1234.02 110.22L1234.02 60.22zM1363.93 35.22L1407.23 60.22L1407.23 110.22L1363.93 135.22L1320.63 110.22L1320.63 60.22zM1363.93 185.22L1407.23 210.22L1407.23 260.22L1363.93 285.22L1320.63 260.22L1320.63 210.22zM1363.93 335.22L1407.23 360.22L1407.23 410.22L1363.93 435.22L1320.63 410.22L1320.63 360.22zM1407.23 -39.78L1450.53 -14.78L1450.53 35.22L1407.23 60.22L1363.93 35.22L1363.93 -14.78zM1450.53 185.22L1493.84 210.22L1493.84 260.22L1450.53 285.22L1407.23 260.22L1407.23 210.22zM1407.23 260.22L1450.53 285.22L1450.53 335.22L1407.23 360.22L1363.93 335.22L1363.93 285.22z" stroke="rgba(6, 80, 156, 0.93)" stroke-width="2"></path></g><defs><mask id="SvgjsMask1000"><rect width="1440" height="560" fill="#ffffff"></rect></mask></defs></svg>